<svg xmlns="http://www.w3.org/2000/svg" viewBox="0 0 160 160" fill="none"><defs><linearGradient id="g" x1="0" y1="0" x2="0" y2="1"><stop offset="0" stop-color="#F3D48A"/><stop offset=".55" stop-color="#D4A24C"/><stop offset="1" stop-color="#A8702E"/></linearGradient><linearGradient id="r" x1="0" y1="0" x2="0" y2="1"><stop offset="0" stop-color="#C8475A"/><stop offset="1" stop-color="#8E2438"/></linearGradient></defs><g stroke="#7A4E24" stroke-width="2.5" stroke-linejoin="round" stroke-linecap="round"><path d="M36 64c10-22 28-34 44-34s34 12 44 34Z" fill="url(#r)"/><path d="M80 30V20"/><circle cx="80" cy="18" r="3" fill="url(#g)"/><rect x="30" y="64" width="100" height="8" rx="2" fill="url(#g)"/><path d="M40 72v52M120 72v52" stroke="url(#g)" stroke-width="7"/><path d="M40 72v52M120 72v52"/><path d="M46 72c4 10 10 14 16 14s12-4 16-14c4 10 10 14 16 14s12-4 16-14" stroke="#F3D48A" stroke-width="2.5" fill="none"/><path d="M26 124h108v8H26Z" fill="url(#g)"/><path d="M72 124c0-8 3-12 8-12s8 4 8 12Z" fill="#F0A93C"/><path d="M80 112c-4-5-4-10 0-14 4 4 4 9 0 14Z" fill="#F7B733"/></g><g fill="#F3D48A" stroke="#7A4E24" stroke-width="1.2" stroke-linejoin="round"><path d="M22 34l2 5 5 2-5 2-2 5-2-5-5-2 5-2Z"/><path d="M138 30l2 5 5 2-5 2-2 5-2-5-5-2 5-2Z"/><path d="M142 90l1.5 4 4 1.5-4 1.5-1.5 4-1.5-4-4-1.5 4-1.5Z"/><path d="M18 92l1.5 4 4 1.5-4 1.5-1.5 4-1.5-4-4-1.5 4-1.5Z"/></g></svg>
