<svg xmlns="http://www.w3.org/2000/svg" viewBox="0 0 160 160" fill="none"><g stroke="#A97945" stroke-width="3" stroke-linecap="round" stroke-linejoin="round"><path d="M47 125c4-25 15-40 33-40s29 15 33 40"/><path d="M57 86c6-12 14-19 23-19s17 7 23 19"/><path d="M64 69c4-10 10-16 16-19 6 3 12 9 16 19"/><path d="M80 50v-11"/><path d="M73 39c4-7 10-7 14 0"/><path d="M42 125h76"/><path d="M61 102h38"/><path d="M67 102v23"/><path d="M93 102v23"/></g><circle cx="80" cy="39" r="3" fill="#A97945"/></svg>