<svg xmlns="http://www.w3.org/2000/svg" viewBox="0 0 160 160" fill="none"><g stroke="#9A6A43" stroke-width="3" stroke-linecap="round" stroke-linejoin="round"><path d="M45 101c8-8 19-12 35-12h28c7 0 13 4 16 10"/><path d="M48 101c2 16 13 25 32 25s30-9 32-25"/><path d="M58 87c-5-12-1-22 8-28 7 6 9 16 6 25"/><path d="M82 85c-1-12 5-22 15-27 5 9 3 19-5 27"/><path d="M105 90c5-9 13-13 23-11 0 10-5 17-14 21"/></g><circle cx="67" cy="103" r="4" fill="#9A6A43"/><circle cx="93" cy="103" r="4" fill="#9A6A43"/></svg>